<svg width="128" height="16" viewBox="0 0 128 16" fill="none" xmlns="http://www.w3.org/2000/svg">
<path d="M2.62109 5.56641C2.07422 5.34505 1.61849 5.03255 1.25391 4.62891C0.902344 4.22526 0.615885 3.75 0.394531 3.20312C0.52474 2.85156 0.733073 2.55859 1.01953 2.32422C1.30599 2.07682 1.625 1.86849 1.97656 1.69922C2.34115 1.52995 2.72526 1.39323 3.12891 1.28906C3.53255 1.1849 3.92318 1.09375 4.30078 1.01562C4.37891 1.04167 4.41797 1.04167 4.41797 1.01562C4.41797 0.989583 4.45052 1.0026 4.51562 1.05469C4.98438 0.911458 5.52474 0.77474 6.13672 0.644531C6.7487 0.501302 7.39974 0.449219 8.08984 0.488281C8.18099 0.436198 8.29167 0.410156 8.42188 0.410156C8.55208 0.397135 8.6888 0.390625 8.83203 0.390625C8.97526 0.390625 9.11198 0.390625 9.24219 0.390625C9.3724 0.377604 9.48307 0.351562 9.57422 0.3125C9.65234 0.403646 9.76953 0.46224 9.92578 0.488281C10.082 0.501302 10.2448 0.566406 10.4141 0.683594C10.4661 0.696615 10.4661 0.677083 10.4141 0.625C10.362 0.559896 10.3685 0.514323 10.4336 0.488281C10.6029 0.488281 10.7526 0.527344 10.8828 0.605469C11.013 0.683594 11.1302 0.77474 11.2344 0.878906C11.3516 0.970052 11.4557 1.05469 11.5469 1.13281C11.651 1.21094 11.7617 1.25 11.8789 1.25C11.9961 1.39323 12.1328 1.52995 12.2891 1.66016C12.4583 1.77734 12.6146 1.90104 12.7578 2.03125C12.9141 2.16146 13.0378 2.30469 13.1289 2.46094C13.2331 2.61719 13.2852 2.79297 13.2852 2.98828C13.2721 3.06641 13.2982 3.11198 13.3633 3.125C13.4284 3.13802 13.474 3.17708 13.5 3.24219C13.513 3.72396 13.4349 4.14062 13.2656 4.49219C13.1094 4.84375 12.9076 5.16927 12.6602 5.46875C12.4128 5.75521 12.1458 6.02865 11.8594 6.28906C11.5859 6.54948 11.332 6.82943 11.0977 7.12891C11.2539 7.32422 11.4297 7.50651 11.625 7.67578C11.8333 7.83203 12.0417 7.98828 12.25 8.14453C12.4583 8.30078 12.6536 8.47005 12.8359 8.65234C13.0312 8.82161 13.194 9.01693 13.3242 9.23828C13.3633 9.31641 13.4479 9.36849 13.5781 9.39453C13.6172 9.55078 13.6693 9.71354 13.7344 9.88281C13.8125 10.0391 13.8841 10.1953 13.9492 10.3516C14.0143 10.4948 14.0534 10.625 14.0664 10.7422C14.0794 10.8594 14.0469 10.957 13.9688 11.0352C14.0599 11.0872 14.112 11.1719 14.125 11.2891C14.138 11.3932 14.138 11.4779 14.125 11.543C13.8385 11.8945 13.6432 12.1419 13.5391 12.2852C13.4349 12.4284 13.3568 12.5326 13.3047 12.5977C13.2526 12.6628 13.2005 12.7214 13.1484 12.7734C13.0964 12.8255 12.9792 12.9297 12.7969 13.0859C12.1068 13.5026 11.3841 13.8802 10.6289 14.2188C9.88672 14.5443 9.11198 14.7656 8.30469 14.8828C8.23958 14.974 8.14193 15.0456 8.01172 15.0977C7.89453 15.1628 7.75781 15.2148 7.60156 15.2539C7.44531 15.293 7.27604 15.3255 7.09375 15.3516C6.92448 15.3776 6.76823 15.4036 6.625 15.4297C6.5599 15.4036 6.52083 15.3581 6.50781 15.293C6.50781 15.2409 6.47526 15.2018 6.41016 15.1758C6.39714 15.332 6.32552 15.4102 6.19531 15.4102C6.07812 15.4232 5.92839 15.3971 5.74609 15.332C5.5638 15.2669 5.375 15.1758 5.17969 15.0586C4.98438 14.9414 4.8151 14.8307 4.67188 14.7266C4.60677 14.8438 4.52214 14.9674 4.41797 15.0977C4.32682 15.2279 4.22917 15.319 4.125 15.3711C3.94271 15.3451 3.80599 15.3255 3.71484 15.3125C3.63672 15.2995 3.55859 15.332 3.48047 15.4102C3.3763 15.3581 3.29818 15.2995 3.24609 15.2344C3.19401 15.1823 3.14193 15.1237 3.08984 15.0586C3.03776 15.0065 2.97917 14.9609 2.91406 14.9219C2.84896 14.8698 2.7513 14.8242 2.62109 14.7852C2.64714 14.7201 2.6276 14.6224 2.5625 14.4922C2.4974 14.349 2.40625 14.2643 2.28906 14.2383C2.35417 14.1341 2.32812 14.0039 2.21094 13.8477C2.09375 13.6784 2.0026 13.4896 1.9375 13.2812C1.95052 13.1901 1.95703 13.099 1.95703 13.0078C1.97005 12.9036 1.98307 12.8125 1.99609 12.7344C2.02214 12.6432 2.05469 12.5651 2.09375 12.5C2.13281 12.4349 2.19792 12.3893 2.28906 12.3633C2.27604 12.194 2.22396 12.0312 2.13281 11.875C2.25 11.7839 2.32812 11.6732 2.36719 11.543C2.40625 11.3997 2.4388 11.2565 2.46484 11.1133C2.50391 10.9701 2.54948 10.8333 2.60156 10.7031C2.65365 10.5599 2.73828 10.4427 2.85547 10.3516C2.82943 10.3125 2.80339 10.2799 2.77734 10.2539C2.7513 10.2279 2.73828 10.1823 2.73828 10.1172C2.93359 9.79167 3.07031 9.51823 3.14844 9.29688C3.22656 9.0625 3.28516 8.84115 3.32422 8.63281C3.3763 8.41146 3.42839 8.17708 3.48047 7.92969C3.53255 7.68229 3.63672 7.36979 3.79297 6.99219C3.77995 6.75781 3.80599 6.54948 3.87109 6.36719C3.9362 6.1849 4.0013 6.00911 4.06641 5.83984C4.14453 5.65755 4.20312 5.46875 4.24219 5.27344C4.28125 5.07812 4.27474 4.85026 4.22266 4.58984C4.0013 4.61589 3.83854 4.69401 3.73438 4.82422C3.64323 4.95443 3.58464 5.13021 3.55859 5.35156C3.44141 5.45573 3.29167 5.50781 3.10938 5.50781C2.92708 5.49479 2.76432 5.51432 2.62109 5.56641ZM11.2148 9.33594C10.7201 9.0625 10.2643 8.89974 9.84766 8.84766C9.44401 8.79557 9.05339 8.80208 8.67578 8.86719C8.3112 8.91927 7.95964 8.9974 7.62109 9.10156C7.28255 9.20573 6.94401 9.28385 6.60547 9.33594C6.4362 9.77865 6.26042 10.2669 6.07812 10.8008C5.89583 11.3346 5.72005 11.8555 5.55078 12.3633C6.01953 12.2982 6.44922 12.2005 6.83984 12.0703C7.23047 11.9401 7.60807 11.7969 7.97266 11.6406C8.33724 11.4714 8.69531 11.3086 9.04688 11.1523C9.39844 10.9831 9.76302 10.8268 10.1406 10.6836C10.1797 10.5273 10.2643 10.4036 10.3945 10.3125C10.5247 10.2214 10.6549 10.1367 10.7852 10.0586C10.9154 9.96745 11.026 9.86979 11.1172 9.76562C11.2083 9.66146 11.2409 9.51823 11.2148 9.33594ZM9.84766 3.22266C9.04036 3.19661 8.24609 3.26823 7.46484 3.4375C6.68359 3.60677 6.02604 3.85417 5.49219 4.17969C5.7526 4.40104 6.01953 4.59635 6.29297 4.76562C6.57943 4.9349 6.79427 5.16276 6.9375 5.44922C7.5625 5.20182 8.10938 4.88932 8.57812 4.51172C9.04688 4.12109 9.47005 3.69141 9.84766 3.22266ZM14.0664 15.2344C13.8841 15.1172 13.7409 14.9674 13.6367 14.7852C13.5195 14.6029 13.4284 14.4076 13.3633 14.1992C13.2852 13.9909 13.2266 13.776 13.1875 13.5547C13.1354 13.3203 13.0833 13.099 13.0312 12.8906C13.0312 12.7083 13.0703 12.5781 13.1484 12.5C13.2266 12.4089 13.3112 12.3242 13.4023 12.2461C13.7148 12.2331 13.9948 12.207 14.2422 12.168C14.4896 12.1289 14.7305 12.0898 14.9648 12.0508C15.1992 12.0117 15.4336 11.9792 15.668 11.9531C15.9023 11.9141 16.1562 11.8945 16.4297 11.8945C16.625 11.4909 16.8073 11.1068 16.9766 10.7422C17.1458 10.3646 17.3086 10.0065 17.4648 9.66797C17.543 9.34245 17.6406 9.04297 17.7578 8.76953C17.888 8.48307 18.0117 8.21615 18.1289 7.96875C18.2461 7.70833 18.3503 7.45443 18.4414 7.20703C18.5326 6.94661 18.5911 6.67318 18.6172 6.38672C18.7734 5.93099 18.9102 5.51432 19.0273 5.13672C19.1576 4.74609 19.2552 4.28385 19.3203 3.75C18.8255 3.82812 18.4284 3.90625 18.1289 3.98438C17.8294 4.04948 17.6146 4.11458 17.4844 4.17969C17.224 4.16667 17.0156 4.11458 16.8594 4.02344C16.7161 3.93229 16.599 3.82161 16.5078 3.69141C16.4167 3.5612 16.3385 3.41146 16.2734 3.24219C16.2083 3.07292 16.1302 2.89714 16.0391 2.71484C16.0911 2.59766 16.1042 2.42839 16.0781 2.20703C16.0521 1.97266 15.974 1.80339 15.8438 1.69922C15.9479 1.67318 16.026 1.58854 16.0781 1.44531C16.1302 1.28906 16.1367 1.17188 16.0977 1.09375C16.319 1.02865 16.5534 0.989583 16.8008 0.976562C17.0482 0.950521 17.2891 0.93099 17.5234 0.917969C17.7708 0.891927 18.0052 0.865885 18.2266 0.839844C18.4479 0.800781 18.6367 0.729167 18.793 0.625C19.4701 0.598958 20.1732 0.572917 20.9023 0.546875C21.6445 0.520833 22.3281 0.488281 22.9531 0.449219C23.1875 0.527344 23.4544 0.566406 23.7539 0.566406C24.0664 0.566406 24.3724 0.585938 24.6719 0.625C24.9844 0.664062 25.2578 0.748698 25.4922 0.878906C25.7396 1.00911 25.9089 1.23698 26 1.5625C26.1953 1.58854 26.3385 1.64062 26.4297 1.71875C26.5339 1.79688 26.599 1.89453 26.625 2.01172C26.651 2.11589 26.6576 2.23958 26.6445 2.38281C26.6445 2.51302 26.6445 2.64323 26.6445 2.77344C26.4362 2.92969 26.1693 3.0599 25.8438 3.16406C25.5312 3.25521 25.1862 3.33333 24.8086 3.39844C24.431 3.45052 24.0339 3.48958 23.6172 3.51562C23.2135 3.52865 22.8164 3.54167 22.4258 3.55469C22.3607 3.98438 22.2435 4.49219 22.0742 5.07812C21.918 5.65104 21.7552 6.21745 21.5859 6.77734C21.4167 7.32422 21.2669 7.81901 21.1367 8.26172C21.0195 8.69141 20.9674 8.97135 20.9805 9.10156C20.8503 9.40104 20.7396 9.65495 20.6484 9.86328C20.5703 10.0716 20.4922 10.2669 20.4141 10.4492C20.349 10.6315 20.2773 10.8138 20.1992 10.9961C20.1341 11.1654 20.0495 11.3607 19.9453 11.582H21.2734C21.2995 11.7253 21.3581 11.8229 21.4492 11.875C21.5404 11.9271 21.638 11.9727 21.7422 12.0117C21.8464 12.0508 21.9375 12.1029 22.0156 12.168C22.1068 12.2201 22.1523 12.3112 22.1523 12.4414C22.3997 12.5065 22.556 12.6042 22.6211 12.7344C22.6862 12.8646 22.6992 13.0078 22.6602 13.1641C22.6341 13.3073 22.569 13.457 22.4648 13.6133C22.3737 13.7695 22.2826 13.9062 22.1914 14.0234C22.0742 13.9974 21.9635 14.0299 21.8594 14.1211C21.7552 14.1992 21.6576 14.2904 21.5664 14.3945C21.1888 14.3424 20.8177 14.3359 20.4531 14.375C20.0885 14.4141 19.75 14.4466 19.4375 14.4727C19.3724 14.4857 19.3464 14.5247 19.3594 14.5898C19.3724 14.6419 19.3594 14.681 19.3203 14.707C18.9167 14.5768 18.5 14.5247 18.0703 14.5508C17.6536 14.5768 17.224 14.6419 16.7812 14.7461C16.3516 14.8372 15.9089 14.9349 15.4531 15.0391C14.9974 15.1562 14.5352 15.2214 14.0664 15.2344ZM31.7031 6.19141C31.7422 5.99609 31.7682 5.83984 31.7812 5.72266C31.7943 5.59245 31.7487 5.45573 31.6445 5.3125C31.6966 5.10417 31.7357 4.94141 31.7617 4.82422C31.8008 4.70703 31.8073 4.54427 31.7812 4.33594C31.8984 3.9974 32.0742 3.71094 32.3086 3.47656C32.556 3.24219 32.8229 3.04688 33.1094 2.89062C33.3958 2.72135 33.6953 2.58464 34.0078 2.48047C34.3203 2.36328 34.6133 2.26562 34.8867 2.1875C34.8867 2.13542 34.8607 2.10938 34.8086 2.10938C34.7565 2.10938 34.7435 2.07682 34.7695 2.01172C35.4727 1.88151 36.1758 1.69271 36.8789 1.44531C37.5951 1.19792 38.3242 0.976562 39.0664 0.78125C39.8086 0.585938 40.5703 0.46875 41.3516 0.429688C42.1328 0.377604 42.9531 0.47526 43.8125 0.722656C43.8646 0.878906 43.9362 1.02865 44.0273 1.17188C44.1185 1.3151 44.2096 1.45833 44.3008 1.60156C44.4049 1.73177 44.4961 1.86198 44.5742 1.99219C44.6523 2.1224 44.6979 2.25911 44.7109 2.40234C44.8672 2.54557 44.9909 2.70182 45.082 2.87109C45.1862 3.02734 45.2057 3.24219 45.1406 3.51562C44.9974 3.61979 44.8477 3.72396 44.6914 3.82812C44.5352 3.93229 44.3724 4.02995 44.2031 4.12109C43.6172 3.97786 43.0312 3.92578 42.4453 3.96484C41.8594 4.00391 41.332 4.04948 40.8633 4.10156C40.7201 3.94531 40.5508 3.8737 40.3555 3.88672C40.1602 3.88672 39.9518 3.91927 39.7305 3.98438C39.5221 4.03646 39.3138 4.09505 39.1055 4.16016C38.8971 4.21224 38.7018 4.22526 38.5195 4.19922C38.3763 4.32943 38.1875 4.42057 37.9531 4.47266C37.7188 4.51172 37.4714 4.54427 37.2109 4.57031C37.1979 4.63542 37.2109 4.68099 37.25 4.70703C37.2891 4.73307 37.2956 4.78516 37.2695 4.86328C37.3607 4.98047 37.4844 5.0651 37.6406 5.11719C37.7969 5.15625 37.9531 5.19531 38.1094 5.23438C38.2786 5.27344 38.4284 5.33203 38.5586 5.41016C38.6888 5.47526 38.7734 5.58594 38.8125 5.74219C39.0469 5.75521 39.2487 5.82031 39.418 5.9375C39.5872 6.04167 39.7305 6.17188 39.8477 6.32812C39.9648 6.48438 40.0495 6.65365 40.1016 6.83594C40.1536 7.00521 40.1732 7.16146 40.1602 7.30469C40.2122 7.4349 40.2643 7.48698 40.3164 7.46094C40.3815 7.4349 40.4531 7.46745 40.5312 7.55859C40.5833 7.75391 40.7005 7.96224 40.8828 8.18359C41.0781 8.39193 41.2279 8.61979 41.332 8.86719C41.3581 9.25781 41.3776 9.60938 41.3906 9.92188C41.4167 10.2344 41.3646 10.5404 41.2344 10.8398C41.013 11.4128 40.694 11.9271 40.2773 12.3828C39.8607 12.8385 39.3854 13.2422 38.8516 13.5938C38.3307 13.9323 37.7773 14.2318 37.1914 14.4922C36.6055 14.7396 36.026 14.9479 35.4531 15.1172C35.401 15.1042 35.3359 15.1042 35.2578 15.1172C35.1927 15.1302 35.1797 15.0911 35.2188 15C35.1016 15.1042 34.9648 15.1693 34.8086 15.1953C34.6654 15.2214 34.5026 15.2279 34.3203 15.2148C34.151 15.2148 33.9753 15.2083 33.793 15.1953C33.6237 15.1823 33.4544 15.1888 33.2852 15.2148C33.181 15.1107 33.0833 15.0065 32.9922 14.9023C32.9141 14.7982 32.849 14.6745 32.7969 14.5312C32.7318 14.5182 32.6992 14.4792 32.6992 14.4141C32.7122 14.3359 32.6862 14.2969 32.6211 14.2969C32.6211 14.2448 32.6276 14.2057 32.6406 14.1797C32.6536 14.1536 32.6667 14.1276 32.6797 14.1016C32.7318 14.0625 32.7513 14.0365 32.7383 14.0234C32.7383 13.9974 32.7188 13.9779 32.6797 13.9648C32.6536 13.9388 32.6211 13.9128 32.582 13.8867C32.556 13.8607 32.5495 13.8281 32.5625 13.7891C32.6276 13.6719 32.6471 13.5352 32.6211 13.3789C32.6081 13.2096 32.5951 13.0404 32.582 12.8711C32.569 12.7018 32.582 12.5456 32.6211 12.4023C32.6602 12.2461 32.7708 12.1159 32.9531 12.0117C33.487 12.0638 33.9883 12.0378 34.457 11.9336C34.9388 11.8294 35.388 11.6862 35.8047 11.5039C36.2344 11.3216 36.638 11.1263 37.0156 10.918C37.4062 10.6966 37.7839 10.4948 38.1484 10.3125C38.1875 10.1823 38.2461 10.0716 38.3242 9.98047C38.4154 9.88932 38.5065 9.80469 38.5977 9.72656C38.6888 9.63542 38.7734 9.54427 38.8516 9.45312C38.9297 9.34896 38.9883 9.22526 39.0273 9.08203C39.0404 9.02995 39.0404 8.99089 39.0273 8.96484C39.0143 8.9388 38.9948 8.91927 38.9688 8.90625C38.9427 8.88021 38.9167 8.85417 38.8906 8.82812C38.8646 8.80208 38.8516 8.76302 38.8516 8.71094C38.8125 8.69792 38.7734 8.6849 38.7344 8.67188C38.7083 8.65885 38.6823 8.65234 38.6562 8.65234C38.3177 8.48307 37.9596 8.33984 37.582 8.22266C37.2044 8.10547 36.8854 7.97526 36.625 7.83203C36.4688 7.9362 36.3125 7.96224 36.1562 7.91016C36 7.85807 35.8112 7.80599 35.5898 7.75391C35.043 7.72786 34.5221 7.67578 34.0273 7.59766C33.5456 7.51953 33.0768 7.38281 32.6211 7.1875C32.5951 7.10938 32.5625 7.04427 32.5234 6.99219C32.4844 6.92708 32.3932 6.90755 32.25 6.93359C32.1589 6.80339 32.0612 6.6862 31.957 6.58203C31.8659 6.46484 31.7812 6.33464 31.7031 6.19141ZM53.9688 9.14062C53.9557 9.29688 53.9688 9.44661 54.0078 9.58984C54.0469 9.73307 54.0924 9.8763 54.1445 10.0195C54.2096 10.1497 54.2682 10.2865 54.3203 10.4297C54.3724 10.5729 54.4115 10.7161 54.4375 10.8594C54.4635 11.0417 54.4635 11.2435 54.4375 11.4648C54.4115 11.6732 54.3659 11.8815 54.3008 12.0898C54.2357 12.2852 54.151 12.4674 54.0469 12.6367C53.9427 12.793 53.819 12.9102 53.6758 12.9883C53.4935 13.2227 53.2721 13.4049 53.0117 13.5352C52.7513 13.6654 52.5104 13.8216 52.2891 14.0039C52.1458 14.0951 51.9831 14.1602 51.8008 14.1992C51.6315 14.2383 51.4557 14.2773 51.2734 14.3164C51.1302 14.3945 50.9609 14.4792 50.7656 14.5703C50.5703 14.6484 50.3685 14.7266 50.1602 14.8047C49.9518 14.8698 49.7435 14.9219 49.5352 14.9609C49.3268 14.987 49.1445 14.9935 48.9883 14.9805C48.5977 15.1237 48.2135 15.2148 47.8359 15.2539C47.4714 15.306 47.0417 15.2799 46.5469 15.1758C46.0781 15.2409 45.6419 15.2214 45.2383 15.1172C44.8477 15.013 44.4961 14.8503 44.1836 14.6289C43.8841 14.3945 43.6172 14.1211 43.3828 13.8086C43.1615 13.4831 42.9792 13.1445 42.8359 12.793C42.7318 12.0508 42.7578 11.3802 42.9141 10.7812C43.0703 10.1693 43.2917 9.60938 43.5781 9.10156C43.8776 8.58073 44.2161 8.10547 44.5938 7.67578C44.9714 7.23307 45.3359 6.80339 45.6875 6.38672C45.7656 6.41276 45.8242 6.41276 45.8633 6.38672C45.9154 6.34766 45.9609 6.30208 46 6.25C46.0391 6.1849 46.0781 6.1263 46.1172 6.07422C46.1693 6.02214 46.2279 5.98958 46.293 5.97656C46.3841 5.78125 46.5143 5.63802 46.6836 5.54688C46.8659 5.44271 47.0091 5.29948 47.1133 5.11719C47.2305 5.09115 47.3281 5.05208 47.4062 5C47.4844 4.94792 47.556 4.88932 47.6211 4.82422C47.6992 4.75911 47.7773 4.70052 47.8555 4.64844C47.9336 4.58333 48.0247 4.53776 48.1289 4.51172V4.29688C48.3633 4.19271 48.5326 4.07552 48.6367 3.94531C48.7539 3.80208 48.8906 3.63281 49.0469 3.4375C49.1641 3.42448 49.2552 3.41797 49.3203 3.41797C49.3984 3.41797 49.5091 3.40495 49.6523 3.37891C49.7565 3.19661 49.8477 3.0599 49.9258 2.96875C50.0169 2.8776 50.1471 2.77995 50.3164 2.67578C50.4727 2.75391 50.6419 2.80599 50.8242 2.83203C51.0195 2.85807 51.1888 2.94271 51.332 3.08594C51.3451 3.21615 51.3841 3.32031 51.4492 3.39844C51.5143 3.46354 51.5859 3.52865 51.6641 3.59375C51.7422 3.64583 51.8138 3.70443 51.8789 3.76953C51.957 3.83464 52.0091 3.92578 52.0352 4.04297C52.0872 4.05599 52.1198 4.04948 52.1328 4.02344C52.1589 3.9974 52.1979 3.99089 52.25 4.00391C52.2891 4.1862 52.3346 4.3099 52.3867 4.375C52.4388 4.42708 52.4909 4.53776 52.543 4.70703C52.4779 4.83724 52.4258 4.97396 52.3867 5.11719C52.3607 5.2474 52.2826 5.34505 52.1523 5.41016C52.1393 5.5013 52.1654 5.55339 52.2305 5.56641C52.2956 5.56641 52.3346 5.59896 52.3477 5.66406C52.3607 5.78125 52.3411 5.86589 52.2891 5.91797C52.6016 6.42578 52.8815 6.96615 53.1289 7.53906C53.3763 8.09896 53.6562 8.63281 53.9688 9.14062ZM51.5273 10.9961C51.5794 10.8529 51.6445 10.7357 51.7227 10.6445C51.8138 10.5534 51.8659 10.4167 51.8789 10.2344C51.8138 10.1302 51.7747 10.0521 51.7617 10C51.7487 9.9349 51.7422 9.83724 51.7422 9.70703C51.4557 9.30339 51.2083 8.8737 51 8.41797C50.7917 7.94922 50.5573 7.51302 50.2969 7.10938C50.2708 7.16146 50.2253 7.21354 50.1602 7.26562C50.0951 7.31771 50.0234 7.30469 49.9453 7.22656C49.9193 7.33073 49.8737 7.40885 49.8086 7.46094C49.7435 7.5 49.6719 7.51953 49.5938 7.51953C49.5156 7.50651 49.431 7.48698 49.3398 7.46094C49.2617 7.42188 49.1901 7.3763 49.125 7.32422C48.7474 7.6237 48.3698 7.91667 47.9922 8.20312C47.6146 8.48958 47.276 8.82161 46.9766 9.19922C46.9245 9.22526 46.8919 9.23828 46.8789 9.23828C46.8659 9.22526 46.8268 9.23177 46.7617 9.25781C46.6576 9.50521 46.5273 9.73307 46.3711 9.94141C46.2279 10.1367 46.0846 10.3385 45.9414 10.5469C45.7982 10.7552 45.6745 10.9766 45.5703 11.2109C45.4661 11.4453 45.4076 11.7188 45.3945 12.0312C45.6159 12.2135 45.8763 12.3242 46.1758 12.3633C46.4753 12.4023 46.7812 12.4089 47.0938 12.3828C47.4193 12.3568 47.7318 12.3177 48.0312 12.2656C48.3438 12.2005 48.6302 12.168 48.8906 12.168C49.4375 12.0378 49.9062 11.8685 50.2969 11.6602C50.6875 11.4388 51.0977 11.2174 51.5273 10.9961ZM60.3164 14.7852C59.9518 14.9023 59.5547 15.0195 59.125 15.1367C58.6953 15.2539 58.2656 15.3125 57.8359 15.3125C57.1849 15.3125 56.6706 15.1497 56.293 14.8242C56.2279 14.681 56.1693 14.5833 56.1172 14.5312C56.0781 14.4792 56.0391 14.4271 56 14.375C55.974 14.3099 55.9544 14.2253 55.9414 14.1211C55.7852 13.9388 55.6615 13.7305 55.5703 13.4961C55.4792 13.2487 55.4141 13.0013 55.375 12.7539C55.349 12.4935 55.3424 12.2331 55.3555 11.9727C55.3815 11.7122 55.4271 11.4648 55.4922 11.2305C55.5182 11.1784 55.5312 11.1263 55.5312 11.0742C55.5443 11.0221 55.5573 10.9635 55.5703 10.8984C55.6224 10.6901 55.6745 10.4883 55.7266 10.293C55.7917 10.0977 55.8763 9.92839 55.9805 9.78516C55.9284 9.66797 55.9284 9.53776 55.9805 9.39453C56.0326 9.2513 56.0911 9.12109 56.1562 9.00391C56.3385 8.50911 56.4883 8.09245 56.6055 7.75391C56.7357 7.40234 56.8659 7.05729 56.9961 6.71875C57.2174 6.13281 57.4258 5.55339 57.6211 4.98047C57.8164 4.40755 57.9922 3.78906 58.1484 3.125C58.2526 3.0599 58.3307 3.01432 58.3828 2.98828C58.4609 2.96224 58.526 2.94271 58.5781 2.92969C58.8125 3.04688 59.0859 3.16406 59.3984 3.28125C59.7109 3.38542 59.9714 3.4375 60.1797 3.4375C60.2839 3.5026 60.349 3.55469 60.375 3.59375C60.401 3.61979 60.4271 3.64583 60.4531 3.67188C60.5964 3.84115 60.7201 4.01693 60.8242 4.19922C60.9284 4.36849 60.9609 4.59635 60.9219 4.88281C60.8438 5 60.7852 5.05859 60.7461 5.05859C60.681 5.31901 60.6094 5.54036 60.5312 5.72266C60.4661 5.90495 60.3945 6.08724 60.3164 6.26953C60.2253 6.46484 60.1406 6.66016 60.0625 6.85547C59.9844 7.05078 59.9193 7.29167 59.8672 7.57812C59.8151 7.64323 59.776 7.70182 59.75 7.75391C59.737 7.80599 59.7174 7.86458 59.6914 7.92969C59.6654 7.99479 59.6328 8.06641 59.5938 8.14453C59.5677 8.20964 59.5221 8.26823 59.457 8.32031C59.418 8.65885 59.3529 8.93229 59.2617 9.14062C59.1836 9.34896 59.099 9.55729 59.0078 9.76562C58.8516 10.1432 58.7083 10.5208 58.5781 10.8984C58.4609 11.276 58.3893 11.7057 58.3633 12.1875C58.4284 12.1615 58.487 12.1484 58.5391 12.1484C58.6042 12.1484 58.6628 12.1484 58.7148 12.1484C58.832 12.1484 58.9688 12.168 59.125 12.207C59.5156 11.9987 59.9388 11.875 60.3945 11.8359C60.8633 11.7969 61.3255 11.7708 61.7812 11.7578C61.9635 11.7578 62.1458 11.7578 62.3281 11.7578C62.5104 11.7578 62.6797 11.7448 62.8359 11.7188C62.9531 11.7839 63.0247 11.8229 63.0508 11.8359C63.0898 11.8359 63.1419 11.8359 63.207 11.8359C63.2982 11.8359 63.3763 11.8424 63.4414 11.8555C63.5977 11.9987 63.7474 12.1029 63.8906 12.168C64.0339 12.2331 64.1836 12.2917 64.3398 12.3438C64.4831 12.3958 64.6198 12.4544 64.75 12.5195C64.8932 12.5716 65.0299 12.6497 65.1602 12.7539L65.2969 13.5938C65.388 13.7109 65.4271 13.7891 65.4141 13.8281C65.4141 13.9323 65.388 14.0104 65.3359 14.0625L65.375 14.2773C65.1797 14.3164 65.043 14.362 64.9648 14.4141C64.8997 14.4661 64.8346 14.5247 64.7695 14.5898C64.6654 14.6029 64.5872 14.6094 64.5352 14.6094C64.4961 14.6094 64.457 14.6094 64.418 14.6094C64.2357 14.6094 64.0143 14.6419 63.7539 14.707C63.4023 14.5898 63.0378 14.5312 62.6602 14.5312C62.5169 14.5312 62.3672 14.5378 62.2109 14.5508C62.0547 14.5638 61.8984 14.5768 61.7422 14.5898C61.5859 14.6159 61.4232 14.6354 61.2539 14.6484C61.0977 14.6615 60.9349 14.668 60.7656 14.668L60.3164 14.7852ZM76.5469 3.88672C76.5729 4.17318 76.6185 4.42057 76.6836 4.62891C76.7487 4.83724 76.8203 5.03906 76.8984 5.23438C76.9635 5.41667 77.0221 5.59896 77.0742 5.78125C77.1393 5.95052 77.1849 6.15885 77.2109 6.40625C77.1068 6.74479 77.0286 7.05729 76.9766 7.34375C76.9375 7.63021 76.8919 7.92969 76.8398 8.24219C76.6315 8.69792 76.4297 9.10156 76.2344 9.45312C76.0391 9.80469 75.8828 10.1107 75.7656 10.3711C75.7005 10.4362 75.6419 10.5143 75.5898 10.6055C75.5508 10.6836 75.5052 10.7682 75.4531 10.8594C75.4271 10.8984 75.3945 10.957 75.3555 11.0352C75.3164 11.1133 75.2839 11.1654 75.2578 11.1914L74.8672 11.0547L74.7891 11.543L74.5156 11.6211L74.3203 11.8555C74.0729 12.2852 73.8125 12.6497 73.5391 12.9492C73.2656 13.2357 72.9531 13.4961 72.6016 13.7305C72.263 13.9518 71.8724 14.1602 71.4297 14.3555C71 14.5508 70.5117 14.7656 69.9648 15C69.7435 14.974 69.5482 14.9609 69.3789 14.9609C69.2227 14.9479 69.0729 14.9349 68.9297 14.9219C68.6823 14.9219 68.3763 14.9023 68.0117 14.8633C67.9727 14.7591 67.9141 14.6875 67.8359 14.6484C67.7578 14.6094 67.6862 14.5898 67.6211 14.5898C67.3997 14.4857 67.2305 14.3359 67.1133 14.1406C67.0091 13.9323 66.9049 13.7109 66.8008 13.4766C66.7357 13.3333 66.6706 13.2031 66.6055 13.0859C66.5404 12.9557 66.4688 12.8255 66.3906 12.6953L66.7227 12.5977L66.293 12.1289C66.2669 12.0898 66.2344 12.0573 66.1953 12.0312C66.1562 11.9922 66.1237 11.9531 66.0977 11.9141L66.0781 11.6016C66.0391 10.7031 66.0195 9.88281 66.0195 9.14062C66.0326 8.38542 66.1367 7.71484 66.332 7.12891V6.91406C66.3711 6.6276 66.4102 6.39323 66.4492 6.21094C66.4883 6.01562 66.5208 5.83333 66.5469 5.66406C66.5859 5.3776 66.6445 5.11068 66.7227 4.86328C66.9049 4.82422 67.0417 4.7526 67.1328 4.64844C67.224 4.53125 67.3021 4.42708 67.3672 4.33594C67.5495 4.32292 67.6732 4.34896 67.7383 4.41406C67.8034 4.47917 67.8685 4.58333 67.9336 4.72656C67.9987 4.84375 68.0768 4.97396 68.168 5.11719C68.2721 5.26042 68.4219 5.37109 68.6172 5.44922C68.6432 5.55339 68.6758 5.66406 68.7148 5.78125C68.7669 5.88542 68.819 6.0026 68.8711 6.13281C68.9753 6.35417 69.0664 6.58854 69.1445 6.83594C69.2357 7.07031 69.2878 7.29818 69.3008 7.51953C69.1706 7.76693 69.0664 8.05339 68.9883 8.37891C68.9232 8.70443 68.8776 9.03646 68.8516 9.375C68.8385 9.70052 68.8451 10.0195 68.8711 10.332C68.9102 10.6315 68.9688 10.8854 69.0469 11.0938L69.1641 11.3477L69.4961 11.3086C69.8867 11.2044 70.2383 11.0938 70.5508 10.9766C70.8763 10.8464 71.1758 10.6966 71.4492 10.5273C71.7227 10.3581 71.9831 10.1628 72.2305 9.94141C72.4779 9.70703 72.7383 9.4401 73.0117 9.14062C73.2852 8.84115 73.5195 8.5026 73.7148 8.125C73.9232 7.73438 74.0924 7.33073 74.2227 6.91406C74.3659 6.4974 74.4701 6.08724 74.5352 5.68359C74.6133 5.26693 74.6654 4.8763 74.6914 4.51172C74.9128 4.43359 75.0234 4.27734 75.0234 4.04297L74.9844 3.82812C74.9323 3.75 74.9323 3.65885 74.9844 3.55469C75.0625 3.30729 75.2448 3.11849 75.5312 2.98828C75.7396 3.11849 75.9219 3.26172 76.0781 3.41797C76.2474 3.57422 76.4036 3.73047 76.5469 3.88672ZM87.8359 5.60547C87.5104 5.60547 87.1589 5.63151 86.7812 5.68359C86.4036 5.72266 86.0326 5.76823 85.668 5.82031C85.4076 5.85938 85.1536 5.89193 84.9062 5.91797C84.6719 5.94401 84.457 5.96354 84.2617 5.97656C84.1706 6.26302 84.0794 6.51693 83.9883 6.73828C83.8971 6.95964 83.7995 7.17448 83.6953 7.38281C83.5911 7.60417 83.4935 7.83203 83.4023 8.06641C83.3242 8.28776 83.2461 8.52865 83.168 8.78906C83.0378 8.9974 82.9271 9.19271 82.8359 9.375C82.7578 9.54427 82.6927 9.73958 82.6406 9.96094C82.4844 10.1562 82.3672 10.3646 82.2891 10.5859C82.2109 10.7943 82.1523 10.9766 82.1133 11.1328L82.0352 11.3672C81.957 11.4453 81.9115 11.5104 81.8984 11.5625C81.8854 11.6016 81.8529 11.6406 81.8008 11.6797C81.7878 11.8229 81.7422 11.9661 81.6641 12.1094C81.638 12.1745 81.6185 12.2396 81.6055 12.3047C81.5924 12.3568 81.5859 12.3958 81.5859 12.4219C81.5859 12.5521 81.5534 12.6367 81.4883 12.6758C81.5013 12.7409 81.5013 12.8125 81.4883 12.8906C81.4753 12.9557 81.4622 13.0208 81.4492 13.0859C81.4102 13.2422 81.3971 13.3659 81.4102 13.457C81.4492 13.5091 81.4818 13.5547 81.5078 13.5938C81.5469 13.6328 81.5729 13.6849 81.5859 13.75C81.6641 13.8021 81.7227 13.8346 81.7617 13.8477C81.8138 13.8867 81.8919 13.9323 81.9961 13.9844L82.1719 14.1797C82.237 14.5573 82.1784 14.8568 81.9961 15.0781C81.8008 15.3255 81.4688 15.4492 81 15.4492H80.7656C80.7005 15.3841 80.6615 15.332 80.6484 15.293C80.5443 15.2539 80.4596 15.2214 80.3945 15.1953C80.3294 15.1693 80.2708 15.1172 80.2188 15.0391C80.0495 14.9609 79.9128 14.8958 79.8086 14.8438L79.6328 14.7461C79.6328 14.6029 79.6328 14.5247 79.6328 14.5117C79.5417 14.3945 79.4701 14.2643 79.418 14.1211C79.3789 13.9779 79.3464 13.8346 79.3203 13.6914C79.2943 13.5742 79.2617 13.4635 79.2227 13.3594C79.1966 13.2552 79.1576 13.1641 79.1055 13.0859C79.0794 12.3307 79.151 11.6927 79.3203 11.1719C79.4896 10.651 79.6654 10.1497 79.8477 9.66797C79.9518 9.40755 80.056 9.14714 80.1602 8.88672C80.2643 8.61328 80.3555 8.33333 80.4336 8.04688L80.6094 7.85156C80.7005 7.64323 80.7721 7.47396 80.8242 7.34375C80.8893 7.20052 80.9544 7.05729 81.0195 6.91406C81.0586 6.82292 81.0911 6.73828 81.1172 6.66016C81.1562 6.56901 81.1888 6.49089 81.2148 6.42578C81.1367 6.42578 81.0651 6.43229 81 6.44531C80.9349 6.44531 80.8698 6.45182 80.8047 6.46484C80.7266 6.47786 80.6549 6.49089 80.5898 6.50391C80.5247 6.50391 80.4596 6.50391 80.3945 6.50391C80.3034 6.50391 80.2383 6.4974 80.1992 6.48438C80.056 6.54948 79.8997 6.58203 79.7305 6.58203H79.5352C79.4961 6.58203 79.457 6.58203 79.418 6.58203C79.3919 6.56901 79.3659 6.5625 79.3398 6.5625C79.2096 6.5625 79.1055 6.58203 79.0273 6.62109C78.8711 6.62109 78.7214 6.62109 78.5781 6.62109H78.3828C78.3568 6.62109 78.3242 6.6276 78.2852 6.64062C78.2461 6.64062 78.2135 6.64062 78.1875 6.64062C78.0964 6.64062 77.9987 6.63411 77.8945 6.62109C77.7904 6.59505 77.6797 6.54948 77.5625 6.48438C77.4062 6.27604 77.3021 6.16536 77.25 6.15234L77.0742 5.91797C77.0612 5.83984 77.0417 5.76823 77.0156 5.70312C76.9896 5.625 76.9635 5.54036 76.9375 5.44922C76.8854 5.31901 76.8333 5.18229 76.7812 5.03906C76.7422 4.88281 76.7227 4.70052 76.7227 4.49219C76.7357 4.38802 76.7617 4.3099 76.8008 4.25781C76.8398 4.20573 76.8724 4.16016 76.8984 4.12109L76.957 3.82812L77.2109 3.84766H77.7578C78.1745 3.84766 78.5977 3.83464 79.0273 3.80859C79.457 3.76953 79.8997 3.73047 80.3555 3.69141C80.6159 3.66536 80.8763 3.63932 81.1367 3.61328C81.4102 3.58724 81.6901 3.5612 81.9766 3.53516C82.0286 3.41797 82.0807 3.30729 82.1328 3.20312L82.3281 3.10547C82.5625 3.09245 82.7253 3.125 82.8164 3.20312C82.9206 3.26823 83.0052 3.33333 83.0703 3.39844C83.3568 3.3724 83.6432 3.34635 83.9297 3.32031C84.2292 3.28125 84.5286 3.23568 84.8281 3.18359C85.2708 3.11849 85.7135 3.0599 86.1562 3.00781C86.612 2.95573 87.0482 2.92969 87.4648 2.92969C87.6471 2.92969 87.8229 2.9362 87.9922 2.94922C88.1615 2.96224 88.3177 2.98177 88.4609 3.00781L88.6562 3.14453C88.6953 3.22266 88.7474 3.29427 88.8125 3.35938C88.8906 3.42448 88.9688 3.48958 89.0469 3.55469C89.2031 3.69792 89.3594 3.86719 89.5156 4.0625C89.6719 4.25781 89.7305 4.54427 89.6914 4.92188C89.5872 5.07812 89.5091 5.16927 89.457 5.19531L89.2812 5.42969L89.0859 5.41016C89.0078 5.41016 88.9362 5.42318 88.8711 5.44922C88.806 5.46224 88.7409 5.48177 88.6758 5.50781C88.6237 5.53385 88.5716 5.5599 88.5195 5.58594C88.4674 5.59896 88.4089 5.61198 88.3438 5.625C88.2266 5.625 88.1289 5.625 88.0508 5.625C87.9857 5.61198 87.9141 5.60547 87.8359 5.60547ZM90.4531 13.6328C90.5182 14.0234 90.4922 14.3294 90.375 14.5508C90.2708 14.7721 90.1146 14.9349 89.9062 15.0391C89.7109 15.1562 89.4831 15.2214 89.2227 15.2344C88.9622 15.2474 88.7148 15.2344 88.4805 15.1953C88.3503 15.013 88.2331 14.7852 88.1289 14.5117C88.0247 14.2383 87.9271 13.9583 87.8359 13.6719C87.7448 13.3724 87.6602 13.0794 87.582 12.793C87.5169 12.5065 87.4583 12.2526 87.4062 12.0312C87.4714 11.875 87.5104 11.6992 87.5234 11.5039C87.5495 11.2956 87.5625 11.0872 87.5625 10.8789C87.5755 10.6706 87.582 10.4622 87.582 10.2539C87.5951 10.0326 87.6146 9.82422 87.6406 9.62891C87.7318 9.08203 87.862 8.5612 88.0312 8.06641C88.2135 7.57161 88.3568 7.05729 88.4609 6.52344C88.487 6.40625 88.474 6.29557 88.4219 6.19141C88.3828 6.08724 88.3763 5.98958 88.4023 5.89844C88.4154 5.84635 88.4544 5.8138 88.5195 5.80078C88.5846 5.77474 88.6237 5.72917 88.6367 5.66406C88.6758 5.52083 88.6823 5.40365 88.6562 5.3125C88.6432 5.22135 88.6693 5.11068 88.7344 4.98047C88.7995 4.8763 88.8776 4.72656 88.9688 4.53125C89.0729 4.32292 89.112 4.10807 89.0859 3.88672C89.2031 3.80859 89.3138 3.71745 89.418 3.61328C89.5221 3.50911 89.6263 3.41797 89.7305 3.33984C89.8477 3.2487 89.9714 3.17057 90.1016 3.10547C90.2448 3.04036 90.4141 3.00781 90.6094 3.00781C90.7135 3.13802 90.7786 3.28125 90.8047 3.4375C90.8438 3.59375 90.8763 3.75 90.9023 3.90625C90.9414 4.0625 90.9935 4.21224 91.0586 4.35547C91.1237 4.48568 91.2344 4.58984 91.3906 4.66797C91.3906 4.77214 91.3906 4.90234 91.3906 5.05859C91.3906 5.21484 91.3971 5.37109 91.4102 5.52734C91.4232 5.67057 91.4492 5.80729 91.4883 5.9375C91.5404 6.05469 91.6185 6.13281 91.7227 6.17188C91.4883 6.79688 91.2669 7.41536 91.0586 8.02734C90.8633 8.63932 90.7005 9.25781 90.5703 9.88281C90.4401 10.4948 90.3555 11.1133 90.3164 11.7383C90.2904 12.3633 90.3359 12.9948 90.4531 13.6328ZM103.715 9.14062C103.702 9.29688 103.715 9.44661 103.754 9.58984C103.793 9.73307 103.839 9.8763 103.891 10.0195C103.956 10.1497 104.014 10.2865 104.066 10.4297C104.118 10.5729 104.158 10.7161 104.184 10.8594C104.21 11.0417 104.21 11.2435 104.184 11.4648C104.158 11.6732 104.112 11.8815 104.047 12.0898C103.982 12.2852 103.897 12.4674 103.793 12.6367C103.689 12.793 103.565 12.9102 103.422 12.9883C103.24 13.2227 103.018 13.4049 102.758 13.5352C102.497 13.6654 102.257 13.8216 102.035 14.0039C101.892 14.0951 101.729 14.1602 101.547 14.1992C101.378 14.2383 101.202 14.2773 101.02 14.3164C100.876 14.3945 100.707 14.4792 100.512 14.5703C100.316 14.6484 100.115 14.7266 99.9062 14.8047C99.6979 14.8698 99.4896 14.9219 99.2812 14.9609C99.0729 14.987 98.8906 14.9935 98.7344 14.9805C98.3438 15.1237 97.9596 15.2148 97.582 15.2539C97.2174 15.306 96.7878 15.2799 96.293 15.1758C95.8242 15.2409 95.388 15.2214 94.9844 15.1172C94.5938 15.013 94.2422 14.8503 93.9297 14.6289C93.6302 14.3945 93.3633 14.1211 93.1289 13.8086C92.9076 13.4831 92.7253 13.1445 92.582 12.793C92.4779 12.0508 92.5039 11.3802 92.6602 10.7812C92.8164 10.1693 93.0378 9.60938 93.3242 9.10156C93.6237 8.58073 93.9622 8.10547 94.3398 7.67578C94.7174 7.23307 95.082 6.80339 95.4336 6.38672C95.5117 6.41276 95.5703 6.41276 95.6094 6.38672C95.6615 6.34766 95.707 6.30208 95.7461 6.25C95.7852 6.1849 95.8242 6.1263 95.8633 6.07422C95.9154 6.02214 95.974 5.98958 96.0391 5.97656C96.1302 5.78125 96.2604 5.63802 96.4297 5.54688C96.612 5.44271 96.7552 5.29948 96.8594 5.11719C96.9766 5.09115 97.0742 5.05208 97.1523 5C97.2305 4.94792 97.3021 4.88932 97.3672 4.82422C97.4453 4.75911 97.5234 4.70052 97.6016 4.64844C97.6797 4.58333 97.7708 4.53776 97.875 4.51172V4.29688C98.1094 4.19271 98.2786 4.07552 98.3828 3.94531C98.5 3.80208 98.6367 3.63281 98.793 3.4375C98.9102 3.42448 99.0013 3.41797 99.0664 3.41797C99.1445 3.41797 99.2552 3.40495 99.3984 3.37891C99.5026 3.19661 99.5938 3.0599 99.6719 2.96875C99.763 2.8776 99.8932 2.77995 100.062 2.67578C100.219 2.75391 100.388 2.80599 100.57 2.83203C100.766 2.85807 100.935 2.94271 101.078 3.08594C101.091 3.21615 101.13 3.32031 101.195 3.39844C101.26 3.46354 101.332 3.52865 101.41 3.59375C101.488 3.64583 101.56 3.70443 101.625 3.76953C101.703 3.83464 101.755 3.92578 101.781 4.04297C101.833 4.05599 101.866 4.04948 101.879 4.02344C101.905 3.9974 101.944 3.99089 101.996 4.00391C102.035 4.1862 102.081 4.3099 102.133 4.375C102.185 4.42708 102.237 4.53776 102.289 4.70703C102.224 4.83724 102.172 4.97396 102.133 5.11719C102.107 5.2474 102.029 5.34505 101.898 5.41016C101.885 5.5013 101.911 5.55339 101.977 5.56641C102.042 5.56641 102.081 5.59896 102.094 5.66406C102.107 5.78125 102.087 5.86589 102.035 5.91797C102.348 6.42578 102.628 6.96615 102.875 7.53906C103.122 8.09896 103.402 8.63281 103.715 9.14062ZM101.273 10.9961C101.326 10.8529 101.391 10.7357 101.469 10.6445C101.56 10.5534 101.612 10.4167 101.625 10.2344C101.56 10.1302 101.521 10.0521 101.508 10C101.495 9.9349 101.488 9.83724 101.488 9.70703C101.202 9.30339 100.954 8.8737 100.746 8.41797C100.538 7.94922 100.303 7.51302 100.043 7.10938C100.017 7.16146 99.9714 7.21354 99.9062 7.26562C99.8411 7.31771 99.7695 7.30469 99.6914 7.22656C99.6654 7.33073 99.6198 7.40885 99.5547 7.46094C99.4896 7.5 99.418 7.51953 99.3398 7.51953C99.2617 7.50651 99.1771 7.48698 99.0859 7.46094C99.0078 7.42188 98.9362 7.3763 98.8711 7.32422C98.4935 7.6237 98.1159 7.91667 97.7383 8.20312C97.3607 8.48958 97.0221 8.82161 96.7227 9.19922C96.6706 9.22526 96.638 9.23828 96.625 9.23828C96.612 9.22526 96.5729 9.23177 96.5078 9.25781C96.4036 9.50521 96.2734 9.73307 96.1172 9.94141C95.974 10.1367 95.8307 10.3385 95.6875 10.5469C95.5443 10.7552 95.4206 10.9766 95.3164 11.2109C95.2122 11.4453 95.1536 11.7188 95.1406 12.0312C95.362 12.2135 95.6224 12.3242 95.9219 12.3633C96.2214 12.4023 96.5273 12.4089 96.8398 12.3828C97.1654 12.3568 97.4779 12.3177 97.7773 12.2656C98.0898 12.2005 98.3763 12.168 98.6367 12.168C99.1836 12.0378 99.6523 11.8685 100.043 11.6602C100.434 11.4388 100.844 11.2174 101.273 10.9961ZM108.91 11.4453C108.793 11.4714 108.708 11.543 108.656 11.6602C108.604 11.7643 108.552 11.875 108.5 11.9922C108.461 12.1094 108.415 12.2201 108.363 12.3242C108.324 12.4154 108.259 12.4609 108.168 12.4609C108.155 12.5651 108.116 12.6562 108.051 12.7344C107.999 12.8125 107.947 12.8971 107.895 12.9883C107.842 13.0664 107.803 13.1576 107.777 13.2617C107.751 13.3529 107.764 13.4635 107.816 13.5938C107.712 13.6719 107.647 13.7826 107.621 13.9258C107.595 14.069 107.562 14.2057 107.523 14.3359C107.497 14.4661 107.445 14.5768 107.367 14.668C107.289 14.7591 107.146 14.7982 106.938 14.7852C106.898 14.8372 106.892 14.8698 106.918 14.8828C106.944 14.8958 106.964 14.9414 106.977 15.0195C106.833 14.9935 106.723 15 106.645 15.0391C106.579 15.0911 106.495 15.1237 106.391 15.1367C106.143 15.0586 105.935 14.9219 105.766 14.7266C105.609 14.5312 105.466 14.3164 105.336 14.082C105.219 13.8346 105.108 13.5872 105.004 13.3398C104.913 13.0924 104.822 12.8776 104.73 12.6953C104.77 12.5521 104.776 12.4154 104.75 12.2852C104.724 12.1419 104.678 12.0247 104.613 11.9336C105.251 10.5794 105.948 9.13411 106.703 7.59766C107.458 6.0612 108.174 4.54427 108.852 3.04688C109.151 3.16406 109.444 3.30078 109.73 3.45703C110.03 3.60026 110.297 3.76953 110.531 3.96484C110.779 4.16016 110.987 4.38802 111.156 4.64844C111.326 4.89583 111.436 5.17578 111.488 5.48828C111.462 5.56641 111.43 5.59896 111.391 5.58594C111.365 5.5599 111.339 5.56641 111.312 5.60547C111.365 5.67057 111.391 5.71615 111.391 5.74219C111.404 5.76823 111.404 5.79427 111.391 5.82031C111.391 5.84635 111.391 5.88542 111.391 5.9375C111.391 5.97656 111.41 6.03516 111.449 6.11328C111.397 6.10026 111.358 6.10677 111.332 6.13281C111.319 6.15885 111.28 6.15885 111.215 6.13281C111.267 6.27604 111.28 6.39323 111.254 6.48438C111.241 6.57552 111.215 6.66016 111.176 6.73828C111.137 6.80339 111.104 6.88151 111.078 6.97266C111.052 7.05078 111.059 7.15495 111.098 7.28516C111.059 7.28516 111.026 7.29818 111 7.32422C110.987 7.33724 110.974 7.35677 110.961 7.38281C110.948 7.39583 110.928 7.41536 110.902 7.44141C110.889 7.45443 110.863 7.45443 110.824 7.44141C110.863 7.72786 110.876 8.01432 110.863 8.30078C110.85 8.58724 110.837 8.88021 110.824 9.17969C110.824 9.46615 110.831 9.77214 110.844 10.0977C110.857 10.4102 110.902 10.7357 110.98 11.0742C111.449 10.8008 111.82 10.4492 112.094 10.0195C112.38 9.58984 112.608 9.10807 112.777 8.57422C112.96 8.04036 113.096 7.46745 113.188 6.85547C113.279 6.24349 113.376 5.61849 113.48 4.98047C113.598 4.86328 113.689 4.72005 113.754 4.55078C113.819 4.38151 113.878 4.20573 113.93 4.02344C113.982 3.82812 114.034 3.63932 114.086 3.45703C114.138 3.26172 114.203 3.08594 114.281 2.92969C114.477 2.95573 114.639 3.02083 114.77 3.125C114.913 3.21615 115.043 3.32031 115.16 3.4375C115.277 3.54167 115.401 3.64583 115.531 3.75C115.661 3.84115 115.824 3.89974 116.02 3.92578C116.176 4.14714 116.319 4.36198 116.449 4.57031C116.579 4.77865 116.664 5 116.703 5.23438C116.638 5.33854 116.586 5.45573 116.547 5.58594C116.521 5.71615 116.488 5.84635 116.449 5.97656C116.41 6.10677 116.358 6.23047 116.293 6.34766C116.228 6.45182 116.137 6.54297 116.02 6.62109C115.98 6.95964 115.928 7.27214 115.863 7.55859C115.811 7.83203 115.753 8.10547 115.688 8.37891C115.635 8.65234 115.59 8.9388 115.551 9.23828C115.512 9.52474 115.499 9.84375 115.512 10.1953C115.408 10.4948 115.297 10.8138 115.18 11.1523C115.062 11.4909 114.971 11.7969 114.906 12.0703C114.698 12.2396 114.535 12.4414 114.418 12.6758C114.301 12.9102 114.177 13.1445 114.047 13.3789C113.995 13.431 113.962 13.444 113.949 13.418C113.936 13.3919 113.891 13.3724 113.812 13.3594C113.826 13.4115 113.826 13.4505 113.812 13.4766C113.799 13.5026 113.78 13.5286 113.754 13.5547C113.741 13.5677 113.728 13.5938 113.715 13.6328C113.715 13.6719 113.728 13.724 113.754 13.7891C113.572 13.8672 113.409 13.9779 113.266 14.1211C113.122 14.2643 112.966 14.3945 112.797 14.5117C112.641 14.6289 112.445 14.707 112.211 14.7461C111.99 14.7852 111.697 14.7396 111.332 14.6094C110.798 14.2188 110.323 13.7695 109.906 13.2617C109.503 12.7539 109.171 12.1484 108.91 11.4453ZM116.508 6.21094C116.599 5.9375 116.742 5.70312 116.938 5.50781C117.146 5.3125 117.367 5.14974 117.602 5.01953C117.849 4.8763 118.103 4.75911 118.363 4.66797C118.624 4.57682 118.871 4.4987 119.105 4.43359C119.626 4.21224 120.18 4.00391 120.766 3.80859C121.365 3.60026 121.97 3.41797 122.582 3.26172C123.207 3.10547 123.845 3.00781 124.496 2.96875C125.147 2.91667 125.831 2.99479 126.547 3.20312C126.586 3.33333 126.645 3.45703 126.723 3.57422C126.801 3.69141 126.879 3.80859 126.957 3.92578C127.048 4.04297 127.126 4.16016 127.191 4.27734C127.257 4.38151 127.296 4.49219 127.309 4.60938C127.439 4.72656 127.543 4.85677 127.621 5C127.699 5.13021 127.712 5.30599 127.66 5.52734C127.53 5.63151 127.4 5.72917 127.27 5.82031C127.152 5.89844 127.022 5.97005 126.879 6.03516C126.397 5.91797 125.909 5.87891 125.414 5.91797C124.919 5.95703 124.477 5.98958 124.086 6.01562C123.969 5.89844 123.826 5.83984 123.656 5.83984C123.5 5.83984 123.331 5.86589 123.148 5.91797C122.979 5.97005 122.803 6.02214 122.621 6.07422C122.452 6.1263 122.289 6.13932 122.133 6.11328C122.003 6.21745 121.84 6.28906 121.645 6.32812C121.462 6.35417 121.26 6.38021 121.039 6.40625C121.026 6.47135 121.039 6.51693 121.078 6.54297C121.117 6.55599 121.124 6.59505 121.098 6.66016C121.176 6.7513 121.273 6.81641 121.391 6.85547C121.521 6.89453 121.651 6.93359 121.781 6.97266C121.924 7.01172 122.048 7.0638 122.152 7.12891C122.257 7.18099 122.328 7.27214 122.367 7.40234C122.562 7.40234 122.732 7.44792 122.875 7.53906C123.018 7.63021 123.135 7.74089 123.227 7.87109C123.318 8.0013 123.383 8.14453 123.422 8.30078C123.474 8.44401 123.5 8.57422 123.5 8.69141C123.539 8.79557 123.585 8.84115 123.637 8.82812C123.689 8.8151 123.747 8.84115 123.812 8.90625C123.852 9.07552 123.949 9.2513 124.105 9.43359C124.262 9.60286 124.385 9.79167 124.477 10C124.503 10.3255 124.522 10.6185 124.535 10.8789C124.548 11.1263 124.503 11.3802 124.398 11.6406C124.203 12.1224 123.93 12.5521 123.578 12.9297C123.24 13.3073 122.849 13.6458 122.406 13.9453C121.977 14.2318 121.514 14.4792 121.02 14.6875C120.525 14.8958 120.043 15.0716 119.574 15.2148C119.522 15.2018 119.47 15.2018 119.418 15.2148C119.366 15.2279 119.353 15.1953 119.379 15.1172C119.275 15.2083 119.158 15.2669 119.027 15.293C118.91 15.319 118.78 15.3255 118.637 15.3125C118.493 15.3125 118.344 15.306 118.188 15.293C118.044 15.2799 117.908 15.2865 117.777 15.3125C117.686 15.2214 117.602 15.1302 117.523 15.0391C117.458 14.9609 117.406 14.8568 117.367 14.7266C117.302 14.7266 117.27 14.694 117.27 14.6289C117.283 14.5638 117.263 14.5312 117.211 14.5312C117.289 14.401 117.322 14.3294 117.309 14.3164C117.309 14.2904 117.289 14.2708 117.25 14.2578C117.224 14.2448 117.198 14.2318 117.172 14.2188C117.146 14.1927 117.139 14.1602 117.152 14.1211C117.204 14.0169 117.224 13.8997 117.211 13.7695C117.198 13.6263 117.185 13.4831 117.172 13.3398C117.159 13.1966 117.165 13.0599 117.191 12.9297C117.23 12.7995 117.328 12.6953 117.484 12.6172C117.927 12.6693 118.344 12.6562 118.734 12.5781C119.138 12.487 119.516 12.3633 119.867 12.207C120.219 12.0508 120.551 11.8815 120.863 11.6992C121.189 11.5169 121.508 11.3542 121.82 11.2109C121.859 11.0938 121.911 10.9961 121.977 10.918C122.055 10.8398 122.133 10.7682 122.211 10.7031C122.289 10.638 122.361 10.5664 122.426 10.4883C122.491 10.4102 122.536 10.3125 122.562 10.1953C122.576 10.1042 122.549 10.0521 122.484 10.0391C122.432 10.013 122.406 9.96094 122.406 9.88281L122.191 9.82422C121.944 9.68099 121.664 9.5638 121.352 9.47266C121.039 9.36849 120.772 9.25781 120.551 9.14062C120.408 9.21875 120.271 9.23828 120.141 9.19922C120.023 9.16016 119.867 9.12109 119.672 9.08203C119.229 9.05599 118.799 9.01042 118.383 8.94531C117.979 8.88021 117.589 8.76302 117.211 8.59375C117.185 8.52865 117.152 8.47005 117.113 8.41797C117.074 8.36589 117.003 8.35286 116.898 8.37891C116.82 8.27474 116.742 8.17708 116.664 8.08594C116.586 7.98177 116.514 7.87109 116.449 7.75391C116.475 7.59766 116.495 7.46745 116.508 7.36328C116.521 7.24609 116.482 7.13542 116.391 7.03125C116.443 6.86198 116.482 6.72526 116.508 6.62109C116.534 6.51693 116.534 6.38021 116.508 6.21094Z" fill="white"/>
</svg>
